<svg width="80" height="100" viewBox="0 0 80 100" fill="none" xmlns="http://www.w3.org/2000/svg">
<path d="M71.313 0H8.68682C4.42607 0 0.959473 3.46641 0.959473 7.72734V92.2724C0.959473 96.5334 4.42607 99.9998 8.68682 99.9998H71.3128C75.5735 99.9998 79.0401 96.5334 79.0401 92.2724V7.72734C79.0403 3.46641 75.5737 0 71.313 0ZM3.88916 7.72734C3.88916 5.08203 6.0415 2.92969 8.68682 2.92969H71.3128C73.9583 2.92969 76.1105 5.08203 76.1105 7.72734V37.5754H3.88916V7.72734ZM76.1106 92.2726C76.1106 94.918 73.9583 97.0703 71.313 97.0703H8.68682C6.04131 97.0703 3.88916 94.918 3.88916 92.2726V40.5053H76.1106V92.2726Z" fill="#5200D9"/>
</svg>
